<svg width="14" height="26" viewBox="0 0 14 26" fill="none" xmlns="http://www.w3.org/2000/svg">
<path d="M9.07297 1.63267L9.22646 1.65818H11.3497V4.10719H9.22646C9.10708 4.10719 8.99196 4.11569 8.88111 4.1327C8.77026 4.14971 8.68072 4.17947 8.6125 4.22199C8.54429 4.2645 8.48033 4.31127 8.42064 4.36229C8.36095 4.41332 8.30979 4.46434 8.26716 4.51536C8.22452 4.56638 8.19041 4.62165 8.16483 4.68118C8.13925 4.7407 8.12219 4.79172 8.11367 4.83424L8.08809 4.96179L8.0753 5.05108V8.97969H12.2195L11.6311 11.4287H8.0753V23.6737H5.61949V11.4287H2.34508V8.97969H5.61949V5.17863C5.61949 4.65141 5.6877 4.17947 5.82414 3.7628C5.96057 3.34613 6.1439 3.01874 6.37414 2.78064C6.60437 2.54255 6.83886 2.33846 7.07762 2.16839C7.31638 1.99832 7.58072 1.87927 7.87065 1.81125C8.16057 1.74322 8.3908 1.69645 8.56134 1.67094C8.73188 1.64543 8.90243 1.63267 9.07297 1.63267ZM9.07297 0C8.01561 0 7.0691 0.255105 6.23344 0.765315C4.73267 1.66669 3.98228 3.13779 3.98228 5.17863V7.34702H2.34508C1.90167 7.34702 1.51795 7.50859 1.19392 7.83172C0.869886 8.15485 0.70787 8.53751 0.70787 8.97969V11.4287C0.70787 11.8709 0.869886 12.2535 1.19392 12.5767C1.51795 12.8998 1.90167 13.0614 2.34508 13.0614H3.98228V23.6482C3.98228 24.1074 4.14003 24.4943 4.45554 24.809C4.77104 25.1236 5.15902 25.2809 5.61949 25.2809H8.0753C8.51871 25.2809 8.90243 25.1236 9.22646 24.809C9.55049 24.4943 9.7125 24.1074 9.7125 23.6482V13.0614H11.6311C12.0063 13.0614 12.3389 12.9508 12.6288 12.7297C12.9187 12.5086 13.1148 12.228 13.2171 11.8879L13.7799 9.43888C13.9334 8.91167 13.8482 8.43122 13.5241 7.99754C13.2001 7.56386 12.7652 7.34702 12.2195 7.34702H9.7125V5.73986H11.3497C11.7931 5.73986 12.1768 5.57829 12.5009 5.25516C12.8249 4.93203 12.9869 4.54937 12.9869 4.10719V1.65818C12.9869 1.19899 12.8292 0.812084 12.5137 0.497455C12.1982 0.182825 11.8187 0.0255105 11.3753 0.0255105H9.27762C9.2094 0.0085035 9.14118 0 9.07297 0Z" fill="white"/>
</svg>
