<svg width="28" height="26" viewBox="0 0 28 26" fill="none" xmlns="http://www.w3.org/2000/svg">
<path d="M26.9589 0.446884C26.7112 0.227698 26.4096 0.0821342 26.0868 0.0259636C25.7641 -0.030207 25.4325 0.00515757 25.128 0.128226L1.4217 9.66757C1.06012 9.81306 0.754258 10.0746 0.549882 10.413C0.345506 10.7513 0.253607 11.1484 0.287936 11.5448C0.322266 11.9411 0.480979 12.3154 0.740325 12.6117C0.99967 12.9079 1.3457 13.1102 1.72664 13.1882L7.95465 14.4639V22.3834C7.95428 22.7479 8.05954 23.1042 8.25708 23.4074C8.45463 23.7106 8.73557 23.9468 9.06433 24.0863C9.39309 24.2258 9.75487 24.2622 10.1038 24.1909C10.4528 24.1196 10.7733 23.9438 11.0246 23.6858L14.5273 20.0979L19.7661 24.8201C20.0919 25.1165 20.5124 25.2804 20.9481 25.2809C21.1375 25.2807 21.3258 25.2501 21.506 25.1903C21.8032 25.0937 22.0705 24.919 22.2812 24.6836C22.492 24.4482 22.6388 24.1603 22.707 23.8486L27.5383 2.25397C27.6119 1.92727 27.5969 1.58617 27.4947 1.26761C27.3926 0.949059 27.2074 0.665191 26.959 0.446752L26.9589 0.446884ZM1.82336 11.4052C1.81504 11.3481 1.82673 11.2899 1.85636 11.2408C1.88599 11.1918 1.93164 11.155 1.98521 11.1372L21.8216 3.15508L8.54667 12.9752L2.02888 11.6399C1.97305 11.632 1.92175 11.6041 1.88412 11.5611C1.84649 11.5182 1.82496 11.4629 1.82336 11.4052ZM9.93457 22.5695C9.89865 22.6063 9.85287 22.6314 9.80305 22.6415C9.75322 22.6517 9.70158 22.6465 9.65464 22.6266C9.60771 22.6066 9.56759 22.5729 9.53936 22.5297C9.51113 22.4864 9.49606 22.4355 9.49605 22.3835V15.563L13.3679 19.053L9.93457 22.5695ZM21.2045 23.496C21.1946 23.5405 21.1736 23.5816 21.1435 23.6152C21.1134 23.6488 21.0753 23.6738 21.033 23.6879C20.9906 23.7019 20.9454 23.7044 20.9018 23.6951C20.8582 23.6858 20.8178 23.6651 20.7843 23.635L9.95936 13.8778L26.0135 2.00162L21.2045 23.496Z" fill="white"/>
</svg>
